HIERARCHY
ROOT joint_0
{
	OFFSET 0.000000 0.000000 0.000000
	CHANNELS 6 Xposition Yposition Zposition Zrotation Yrotation Xrotation 
	JOINT joint_1
	{
		OFFSET 0.511002 1.944000 108.288940
		CHANNELS 3 Zrotation Yrotation Xrotation
		JOINT joint_2
		{
			OFFSET -9.074005 1.512993 98.440063
			CHANNELS 3 Zrotation Yrotation Xrotation
			JOINT joint_3
			{
				OFFSET -8.590996 1.815002 98.366943
				CHANNELS 3 Zrotation Yrotation Xrotation
				JOINT joint_4
				{
					OFFSET 2.489998 3.531998 136.462036
					CHANNELS 3 Zrotation Yrotation Xrotation
					JOINT joint_5
					{
						OFFSET 22.708000 2.955002 80.357056
						CHANNELS 3 Zrotation Yrotation Xrotation
						End Site
						{
							OFFSET 0.000000 0.000000 0.000000
						}
					}
				}
				JOINT joint_6
				{
					OFFSET 2.860001 -27.684998 77.234009
					CHANNELS 3 Zrotation Yrotation Xrotation
					JOINT joint_7
					{
						OFFSET 5.449997 -131.244003 -18.851929
						CHANNELS 3 Zrotation Yrotation Xrotation
						JOINT joint_8
						{
							OFFSET 35.757000 -24.661995 -264.074097
							CHANNELS 3 Zrotation Yrotation Xrotation
							JOINT joint_9
							{
								OFFSET 49.392001 -1.747002 -239.960938
								CHANNELS 3 Zrotation Yrotation Xrotation
								End Site
								{
									OFFSET 0.000000 0.000000 0.000000
								}
							}
						}
					}
				}
				JOINT joint_10
				{
					OFFSET -0.127998 31.625000 75.753052
					CHANNELS 3 Zrotation Yrotation Xrotation
					JOINT joint_11
					{
						OFFSET -5.618004 131.132996 -19.557007
						CHANNELS 3 Zrotation Yrotation Xrotation
						JOINT joint_12
						{
							OFFSET 46.488998 30.127991 -261.826050
							CHANNELS 3 Zrotation Yrotation Xrotation
							JOINT joint_13
							{
								OFFSET 66.021003 0.474030 -235.934937
								CHANNELS 3 Zrotation Yrotation Xrotation
								End Site
								{
									OFFSET 0.000000 0.000000 0.000000
								}
							}
						}
					}
				}
			}
		}
	}
	JOINT joint_14
	{
		OFFSET 15.887001 -78.871004 -94.561035
		CHANNELS 3 Zrotation Yrotation Xrotation
		JOINT joint_15
		{
			OFFSET -4.133003 6.714001 -473.615967
			CHANNELS 3 Zrotation Yrotation Xrotation
			JOINT joint_16
			{
				OFFSET -19.541000 5.340000 -399.613007
				CHANNELS 3 Zrotation Yrotation Xrotation
				JOINT joint_17
				{
					OFFSET 164.317001 41.657999 -73.195000
					CHANNELS 3 Zrotation Yrotation Xrotation
					End Site
					{
						OFFSET 0.000000 0.000000 0.000000
					}
				}
			}
		}
	}
	JOINT joint_18
	{
		OFFSET 6.513000 77.960991 -96.406982
		CHANNELS 3 Zrotation Yrotation Xrotation
		JOINT joint_19
		{
			OFFSET -10.660004 -8.518997 -473.485016
			CHANNELS 3 Zrotation Yrotation Xrotation
			JOINT joint_20
			{
				OFFSET -36.967995 -11.098999 -398.260010
				CHANNELS 3 Zrotation Yrotation Xrotation
				JOINT joint_21
				{
					OFFSET 166.067997 30.363998 -74.785000
					CHANNELS 3 Zrotation Yrotation Xrotation
					End Site
					{
						OFFSET 0.000000 0.000000 0.000000
					}
				}
			}
		}
	}
}
MOTION
Frames: 10
Frame Time: 0.016667
-2579.960205 936.843628 1056.048950 0.319554 2.708061 0.870014 -1.869735 4.178080 2.223551 -2.223707 -0.599669 -0.429608 -2.172682 0.717687 0.519280 -0.444204 12.021079 0.361487 0.000000 0.000000 0.000000 -2.053864 -6.102470 -1.389090 -3.551323 -6.984339 -13.487249 2.898947 -36.114836 9.872290 0.000000 0.000000 0.000000 -4.652978 3.093519 -0.058238 10.682806 4.203300 4.107640 -0.926805 -61.909065 -19.041109 0.000000 0.000000 0.000000 0.121315 -13.492650 -4.287535 0.971113 21.209818 -1.864998 0.619536 -7.411055 2.125489 0.000000 0.000000 0.000000 -0.221726 -7.888189 2.897551 -0.108023 6.712070 -1.797337 -0.041205 -0.929812 0.151431 0.000000 0.000000 0.000000 
-2581.163086 936.861328 1056.208008 -0.198255 2.870343 0.752936 -1.720999 4.228810 2.258725 -2.127565 -0.608977 -0.430220 -2.081269 0.741265 0.512534 -0.430883 11.935614 0.328482 0.000000 0.000000 0.000000 -2.032926 -5.839742 -1.280040 -3.347956 -6.699306 -13.141734 2.948376 -35.600444 9.803754 0.000000 0.000000 0.000000 -4.640261 3.088013 0.010334 10.787933 4.277019 4.422329 -0.840144 -61.414285 -18.945632 0.000000 0.000000 0.000000 0.587099 -14.819523 -4.333897 1.624018 23.223884 -1.652046 1.390126 -7.964693 2.585424 0.000000 0.000000 0.000000 -0.107630 -8.066872 3.030802 0.074526 6.683469 -1.801751 0.138445 -0.884298 0.222569 0.000000 0.000000 0.000000 
-2582.061279 936.423096 1056.410034 -0.534255 2.944353 0.682561 -1.630386 4.321884 2.227652 -2.074204 -0.630216 -0.410013 -2.035025 0.772628 0.504735 -0.416563 11.890166 0.290072 0.000000 0.000000 0.000000 -2.016841 -5.586226 -1.184573 -3.173130 -6.424106 -12.794619 3.000615 -35.176462 9.818334 0.000000 0.000000 0.000000 -4.623428 3.093940 0.069143 10.875248 4.351562 4.748289 -0.763792 -60.910696 -18.830980 0.000000 0.000000 0.000000 0.854397 -15.664901 -4.372289 2.029350 24.507629 -1.658922 1.875204 -8.445628 2.905459 0.000000 0.000000 0.000000 -0.041072 -8.109406 3.137382 0.192133 6.562837 -1.798176 0.251154 -0.788552 0.254821 0.000000 0.000000 0.000000 
-2582.623047 935.424194 1056.665039 -0.602105 2.868317 0.676489 -1.634035 4.516819 2.116756 -2.094052 -0.663458 -0.379436 -2.062787 0.818274 0.494397 -0.403462 11.892843 0.254798 0.000000 0.000000 0.000000 -2.022151 -5.360059 -1.102680 -3.019048 -6.177392 -12.405161 3.061901 -34.851971 9.919658 0.000000 0.000000 0.000000 -4.618802 3.115865 0.138122 10.951498 4.432245 5.079860 -0.689913 -60.415016 -18.685939 0.000000 0.000000 0.000000 0.834083 -15.814478 -4.353816 2.047298 24.812765 -2.109895 1.849248 -9.047544 3.045712 0.000000 0.000000 0.000000 -0.039414 -7.949125 3.205376 0.211082 6.335343 -1.787671 0.262325 -0.632267 0.231218 0.000000 0.000000 0.000000 
-2582.879395 933.969421 1056.963013 -0.509991 2.713297 0.694050 -1.689804 4.739262 1.993137 -2.150296 -0.699712 -0.358707 -2.124858 0.869651 0.483935 -0.389764 11.936468 0.214562 0.000000 0.000000 0.000000 -2.035655 -5.139674 -1.045255 -2.889063 -5.936669 -12.003720 3.128170 -34.625412 10.106564 0.000000 0.000000 0.000000 -4.609840 3.149031 0.197121 11.009952 4.514470 5.422446 -0.625645 -59.911103 -18.521154 0.000000 0.000000 0.000000 0.644331 -15.502744 -4.302441 1.822307 24.424065 -2.809647 1.500738 -9.637470 3.051306 0.000000 0.000000 0.000000 -0.075870 -7.659765 3.275083 0.169634 6.015988 -1.775262 0.209804 -0.434315 0.171926 0.000000 0.000000 0.000000 
-2582.863770 932.183350 1057.220947 -0.339871 2.586873 0.683615 -1.758105 4.852122 1.932007 -2.203509 -0.724977 -0.349871 -2.180699 0.903443 0.473014 -0.376049 12.017706 0.163230 0.000000 0.000000 0.000000 -2.037789 -4.887702 -1.028242 -2.796940 -5.664005 -11.658581 3.189362 -34.489154 10.381992 0.000000 0.000000 0.000000 -4.588783 3.230394 0.219534 11.016365 4.619470 5.684025 -0.576731 -59.508684 -18.258352 0.000000 0.000000 0.000000 0.358226 -14.988949 -4.276466 1.459630 23.576152 -3.446598 1.006007 -9.632835 2.845692 0.000000 0.000000 0.000000 -0.133203 -7.393014 3.398168 0.098259 5.693647 -1.768575 0.126784 -0.245319 0.100770 0.000000 0.000000 0.000000 
-2582.493164 930.162415 1057.452026 -0.082422 2.529419 0.622803 -1.841246 4.786607 1.973483 -2.254662 -0.736067 -0.352260 -2.230682 0.910231 0.464455 -0.357138 12.158664 0.080002 0.000000 0.000000 0.000000 -2.031742 -4.587365 -1.080291 -2.741073 -5.342394 -11.371684 3.247663 -34.437941 10.761481 0.000000 0.000000 0.000000 -4.549345 3.387822 0.188528 10.947853 4.767673 5.807293 -0.541313 -59.234436 -17.834687 0.000000 0.000000 0.000000 -0.101191 -14.280125 -4.297047 0.880352 22.153984 -3.994596 0.300128 -8.473983 2.258053 0.000000 0.000000 0.000000 -0.214623 -7.197365 3.590317 -0.004985 5.385121 -1.763018 0.012711 -0.077074 0.019600 0.000000 0.000000 0.000000 
-2581.849609 927.809265 1057.642944 0.268965 2.496200 0.550906 -1.939832 4.620176 2.041358 -2.309513 -0.739946 -0.348349 -2.283387 0.898588 0.456778 -0.338484 12.338526 -0.014739 0.000000 0.000000 0.000000 -2.016020 -4.255357 -1.175924 -2.721609 -4.987732 -11.133844 3.301594 -34.482142 11.231619 0.000000 0.000000 0.000000 -4.496420 3.593437 0.124320 10.830386 4.939811 5.848596 -0.518014 -59.065858 -17.315538 0.000000 0.000000 0.000000 -0.686418 -13.353359 -4.365529 0.147963 20.220418 -4.427059 -0.519484 -6.626908 1.446158 0.000000 0.000000 0.000000 -0.323138 -7.022001 3.816516 -0.142026 5.072367 -1.759931 -0.134710 0.091386 -0.076504 0.000000 0.000000 0.000000 
-2581.209717 924.965088 1057.661011 0.617592 2.471294 0.495810 -2.005835 4.423112 2.070786 -2.332390 -0.727203 -0.342449 -2.303027 0.869644 0.453713 -0.336175 12.486370 -0.067242 0.000000 0.000000 0.000000 -1.971432 -3.906277 -1.257527 -2.754625 -4.613185 -10.989229 3.335602 -34.634101 11.752545 0.000000 0.000000 0.000000 -4.444210 3.801631 0.054415 10.702800 5.099044 5.884022 -0.512217 -59.043855 -16.811822 0.000000 0.000000 0.000000 -1.105472 -12.436588 -4.488128 -0.398480 18.362375 -4.489393 -1.067855 -5.194248 0.851323 0.000000 0.000000 0.000000 -0.437650 -6.872136 4.066043 -0.281499 4.793810 -1.775580 -0.284448 0.244592 -0.170984 0.000000 0.000000 0.000000 
-2580.620850 921.528503 1057.339966 0.919324 2.450391 0.464826 -2.014389 4.200488 2.054740 -2.301484 -0.686282 -0.347369 -2.266177 0.812762 0.457397 -0.358642 12.572977 -0.051695 0.000000 0.000000 0.000000 -1.877702 -3.532349 -1.313628 -2.855465 -4.208290 -10.963299 3.330651 -34.900253 12.272532 0.000000 0.000000 0.000000 -4.385085 4.000999 -0.012072 10.571114 5.231394 5.944516 -0.531744 -59.190569 -16.364007 0.000000 0.000000 0.000000 -1.144976 -11.612862 -4.718069 -0.535057 16.866867 -4.000010 -1.128134 -4.808152 0.726642 0.000000 0.000000 0.000000 -0.545885 -6.740773 4.348633 -0.407969 4.551604 -1.833386 -0.423527 0.367750 -0.255319 0.000000 0.000000 0.000000 
